<?xml version="1.0" ?><svg enable-background="new 0 0 40 40" id="Слой_1" version="1.1" viewBox="0 0 40 40" xml:space="preserve" xmlns="http://www.w3.org/2000/svg" xmlns:xlink="http://www.w3.org/1999/xlink"><g><path d="M34.3,0H5.5C2.4,0-0.1,2.5-0.1,5.6v18.9c0,3.1,2.5,5.6,5.6,5.6c0.6,0,1-0.4,1-1s-0.4-1-1-1c-2,0-3.6-1.6-3.6-3.6V5.6   c0-2,1.6-3.6,3.6-3.6h28.8c2,0,3.6,1.6,3.6,3.6v18.9c0,2-1.6,3.6-3.6,3.6H11.9c-0.5,0-1,0.4-1,1v5.2l-6.1,2.2   c-0.8,0.3-1.3,1.1-1.2,2C3.8,39.4,4.5,40,5.4,40h29c0.9,0,1.6-0.6,1.8-1.5c0.2-0.9-0.3-1.7-1.2-2l-6.1-2.2v-4.2h5.4   c3.1,0,5.6-2.5,5.6-5.6V5.6C39.9,2.5,37.4,0,34.3,0z M26.9,35c0,0.4,0.3,0.8,0.7,0.9l5.7,2.1H6.6l5.5-2h11c0.5,0,1-0.4,1-1   c0-0.6-0.5-1-1-1H12.9v-3.9h14V35z"/></g><g><path d="M22.4,26.1h-5c-0.6,0-1-0.4-1-1s0.4-1,1-1h5c0.6,0,1,0.4,1,1S22.9,26.1,22.4,26.1z"/></g></svg>