<?xml version="1.0" ?><svg fill="none" height="24" viewBox="0 0 24 24" width="24" xmlns="http://www.w3.org/2000/svg"><g id="Mobile Phone"><path clip-rule="evenodd" d="M4.25 3C4.25 1.48122 5.48122 0.25 7 0.25H17C18.5188 0.25 19.75 1.48122 19.75 3V21C19.75 22.5188 18.5188 23.75 17 23.75H7C5.48122 23.75 4.25 22.5188 4.25 21V3ZM7 1.75C6.30964 1.75 5.75 2.30964 5.75 3V21C5.75 21.6904 6.30964 22.25 7 22.25H17C17.6904 22.25 18.25 21.6904 18.25 21V3C18.25 2.30964 17.6904 1.75 17 1.75H7Z" fill="white" fill-rule="evenodd" id="Rectangle 1 (Stroke)"/><path clip-rule="evenodd" d="M7.36201 0.605702C7.49867 0.384589 7.74007 0.25 8 0.25H16C16.2599 0.25 16.5013 0.384589 16.638 0.605702C16.7746 0.826814 16.7871 1.10292 16.6708 1.33541L15.9472 2.78262C15.6508 3.3755 15.0448 3.75 14.382 3.75H9.61803C8.95518 3.75 8.34922 3.3755 8.05279 2.78262L7.32918 1.33541C7.21293 1.10292 7.22536 0.826814 7.36201 0.605702ZM9.21353 1.75L9.39443 2.1118C9.43678 2.1965 9.52334 2.25 9.61803 2.25H14.382C14.4767 2.25 14.5632 2.1965 14.6056 2.1118L14.7865 1.75H9.21353Z" fill="white" fill-rule="evenodd" id="Rectangle 2 (Stroke)"/><path clip-rule="evenodd" d="M9.25 20C9.25 19.5858 9.58579 19.25 10 19.25H14C14.4142 19.25 14.75 19.5858 14.75 20C14.75 20.4142 14.4142 20.75 14 20.75H10C9.58579 20.75 9.25 20.4142 9.25 20Z" fill="white" fill-rule="evenodd" id="Vector 1 (Stroke)"/></g></svg>